#!OML:ASF F:\VICON\USERDATA\INSTALL\rory3\rory3.ASF
:FULLY-SPECIFIED
:DEGREES
359
root 0.548372 22.5309 1.91458 -169.123 11.8117 181.095
lowerback 13.9508 1.77472 -2.08797
upperback 1.35989 2.22864 0.515792
thorax -6.48272 1.22013 1.28706
lowerneck -23.318 -1.07586 -7.17742
upperneck 32.0068 2.84453 0.428889
head 15.0138 0.872374 2.09603
rclavicle -3.02774e-014 -4.57205e-015
rhumerus 14.4642 25.9244 -79.5896
rradius 78.5514
rwrist 55.0831
rhand -23.9188 0.74518
rfingers 7.12502
rthumb 2.55575 -29.2193
lclavicle -3.02774e-014 -4.57205e-015
lhumerus 13.0782 -13.9096 79.3578
lradius 78.8525
lwrist -34.0943
lhand -23.5574 31.4273
lfingers 7.12502
lthumb 2.90479 61.3872
rfemur -55.1625 -12.6575 21.8955
rtibia 92.5542
rfoot -9.29551 1.55752
rtoes -6.39554
lfemur -30.3937 5.05937 -27.1804
ltibia 27.7302
lfoot -14.2503 7.37272
ltoes 0.343261
360
root 0.531863 22.6024 1.89548 -169.148 12.3795 181.134
lowerback 14.0152 1.92663 -2.22743
upperback 1.39429 2.40833 0.496016
thorax -6.49394 1.31208 1.30811
lowerneck -23.5016 -1.04159 -7.18553
upperneck 32.1085 2.89381 0.498457
head 15.0968 0.895874 2.14063
rclavicle -4.17324e-014 -1.54058e-015
rhumerus 14.1792 26.0465 -79.7767
rradius 78.5091
rwrist 55.1791
rhand -24.0077 0.808542
rfingers 7.12502
rthumb 2.46992 -29.1569
lclavicle -4.17324e-014 -1.54058e-015
lhumerus 12.6352 -13.861 79.606
lradius 78.8826
lwrist -34.3157
lhand -24.1293 31.4022
lfingers 7.12502
lthumb 2.35247 61.369
rfemur -56.7291 -12.6306 22.1385
rtibia 94.4593
rfoot -10.8472 2.2285
rtoes -10.8859
lfemur -29.5204 5.23557 -27.1174
ltibia 26.2773
lfoot -13.5995 7.44478
ltoes 1.60496
361
root 0.513817 22.6666 1.88009 -169.104 12.7848 181.227
lowerback 14.0776 2.03212 -2.23737
upperback 1.4065 2.54638 0.49644
thorax -6.52192 1.38022 1.28503
lowerneck -23.7061 -1.03303 -7.1748
upperneck 32.2629 2.92464 0.529631
head 15.2118 0.908435 2.16496
rclavicle 1.99282e-014 1.50579e-014
rhumerus 13.9556 26.138 -79.8904
rradius 78.5424
rwrist 55.2575
rhand -24.019 0.898682
rfingers 7.12502
rthumb 2.45898 -29.0669
lclavicle 1.99282e-014 1.50579e-014
lhumerus 12.253 -13.8393 79.871
lradius 78.8882
lwrist -34.4565
lhand -24.7717 31.4279
lfingers 7.12502
lthumb 1.73203 61.4006
rfemur -58.3575 -12.718 22.4783
rtibia 96.3308
rfoot -12.2653 3.20918
rtoes -12.9639
lfemur -28.6801 5.28369 -27.0135
ltibia 24.7625
lfoot -12.9334 7.66573
ltoes 1.454
362
root 0.493826 22.7235 1.86566 -169.031 13.0848 181.327
lowerback 14.2294 2.08834 -2.16278
upperback 1.32195 2.624 0.497247
thorax -6.69652 1.41575 1.22149
lowerneck -23.6041 -1.0241 -7.23691
upperneck 32.2759 2.94297 0.585933
head 15.1921 0.920345 2.20231
rclavicle -2.88735e-014 -4.22417e-015
rhumerus 13.5534 26.2527 -80.0773
rradius 78.5993
rwrist 55.4146
rhand -23.9644 0.90759
rfingers 7.12502
rthumb 2.51172 -29.0574
lclavicle -2.88735e-014 -4.22417e-015
lhumerus 11.6501 -13.8004 80.2272
lradius 79.0027
lwrist -34.5653
lhand -25.3417 31.5703
lfingers 7.12502
lthumb 1.18157 61.5468
rfemur -60.0675 -12.8179 22.8545
rtibia 98.1488
rfoot -13.1812 4.33807
rtoes -12.4683
lfemur -27.8372 5.28723 -26.9085
ltibia 23.1526
lfoot -12.1009 7.79706
ltoes 0.951131
363
root 0.47492 22.775 1.84988 -168.962 13.504 181.375
lowerback 14.3793 2.16671 -2.20039
upperback 1.21466 2.71013 0.480442
thorax -6.89905 1.45771 1.2
lowerneck -23.4687 -0.955865 -7.21304
upperneck 32.2656 3.02376 0.599495
head 15.1525 0.964195 2.21797
rclavicle -1.55549e-014 7.20594e-016
rhumerus 13.1895 26.4776 -80.2414
rradius 78.6473
rwrist 55.6454
rhand -23.9331 0.840326
rfingers 7.12502
rthumb 2.54194 -29.1243
lclavicle -1.55549e-014 7.20594e-016
lhumerus 11.0299 -13.7065 80.5523
lradius 79.0797
lwrist -34.65
lhand -25.7994 31.5117
lfingers 7.12502
lthumb 0.739465 61.4901
rfemur -61.8092 -12.7797 23.1829
rtibia 99.872
rfoot -13.9174 5.34368
rtoes -11.1384
lfemur -27.0026 5.39621 -26.8707
ltibia 21.5254
lfoot -11.0143 7.74244
ltoes 1.26004
